<svg width="18" height="13" viewBox="0 0 18 13" fill="none" xmlns="http://www.w3.org/2000/svg">
<path fill-rule="evenodd" clip-rule="evenodd" d="M8.99712 9.486C7.34361 9.486 6.00809 8.147 6.00809 6.4955C6.00809 4.853 7.34311 3.5145 8.99712 3.5145C10.6511 3.5145 11.9901 4.853 11.9901 6.4955C11.9901 8.147 10.6506 9.486 8.99712 9.486ZM9.00262 1C4.90008 1 2.30306 4.052 1.24655 5.6065C0.923552 6.086 0.916052 6.917 1.23505 7.3975C2.26756 8.961 4.81758 12 9.00262 12C13.1827 12 15.7332 8.961 16.7652 7.3975C17.0847 6.917 17.0757 6.086 16.7532 5.6065C15.6967 4.052 13.1047 1 9.00262 1Z" stroke="#888888" stroke-linecap="round" stroke-linejoin="round"/>
</svg>
